<mxfile host="Electron" agent="Mozilla/5.0 (Macintosh; Intel Mac OS X 10_15_7) AppleWebKit/537.36 (KHTML, like Gecko) draw.io/28.1.2 Chrome/138.0.7204.243 Electron/37.4.0 Safari/537.36" version="28.1.2">
  <diagram name="Page-1" id="GkvXP0xoi_xKU2VB4Guf">
    <mxGraphModel dx="1216" dy="788" grid="1" gridSize="10" guides="1" tooltips="1" connect="1" arrows="1" fold="1" page="1" pageScale="1" pageWidth="850" pageHeight="1100" math="0" shadow="0">
      <root>
        <mxCell id="0" />
        <mxCell id="1" parent="0" />
        <mxCell id="xELS0xbFVjjMzlSleZyl-1" value="" style="rounded=0;whiteSpace=wrap;html=1;fillColor=none;dashed=1;" vertex="1" parent="1">
          <mxGeometry x="80" y="120" width="160" height="520" as="geometry" />
        </mxCell>
        <mxCell id="xELS0xbFVjjMzlSleZyl-2" value="Sources" style="text;html=1;align=center;verticalAlign=middle;whiteSpace=wrap;rounded=0;fontSize=20;" vertex="1" parent="1">
          <mxGeometry x="135" y="80" width="60" height="30" as="geometry" />
        </mxCell>
        <mxCell id="xELS0xbFVjjMzlSleZyl-3" value="" style="rounded=0;whiteSpace=wrap;html=1;fillColor=none;dashed=1;" vertex="1" parent="1">
          <mxGeometry x="336.5" y="110" width="680" height="520" as="geometry" />
        </mxCell>
        <mxCell id="xELS0xbFVjjMzlSleZyl-4" value="Data Warehouse" style="text;html=1;align=center;verticalAlign=middle;whiteSpace=wrap;rounded=0;fontSize=20;" vertex="1" parent="1">
          <mxGeometry x="565" y="80" width="190" height="30" as="geometry" />
        </mxCell>
        <mxCell id="xELS0xbFVjjMzlSleZyl-5" value="" style="rounded=0;whiteSpace=wrap;html=1;fillColor=none;dashed=1;" vertex="1" parent="1">
          <mxGeometry x="1080" y="120" width="120" height="520" as="geometry" />
        </mxCell>
        <mxCell id="xELS0xbFVjjMzlSleZyl-6" value="Consumers" style="text;html=1;align=center;verticalAlign=middle;whiteSpace=wrap;rounded=0;fontSize=20;" vertex="1" parent="1">
          <mxGeometry x="1090" y="80" width="100" height="30" as="geometry" />
        </mxCell>
        <mxCell id="xELS0xbFVjjMzlSleZyl-7" value="" style="rounded=1;whiteSpace=wrap;html=1;fillColor=none;strokeColor=#d79b00;" vertex="1" parent="1">
          <mxGeometry x="365" y="170" width="155" height="450" as="geometry" />
        </mxCell>
        <mxCell id="xELS0xbFVjjMzlSleZyl-11" value="&lt;font style=&quot;font-size: 20px;&quot;&gt;Bronze Layer&lt;/font&gt;" style="rounded=1;whiteSpace=wrap;html=1;fillColor=#ffe6cc;strokeColor=#d79b00;" vertex="1" parent="1">
          <mxGeometry x="365" y="130" width="155" height="30" as="geometry" />
        </mxCell>
        <mxCell id="xELS0xbFVjjMzlSleZyl-12" value="" style="rounded=1;whiteSpace=wrap;html=1;fillColor=none;strokeColor=#666666;fontColor=#333333;" vertex="1" parent="1">
          <mxGeometry x="600" y="170" width="155" height="450" as="geometry" />
        </mxCell>
        <mxCell id="xELS0xbFVjjMzlSleZyl-13" value="&lt;font style=&quot;font-size: 20px;&quot;&gt;Silver Layer&lt;/font&gt;" style="rounded=1;whiteSpace=wrap;html=1;fillColor=#f5f5f5;strokeColor=#666666;fontColor=#333333;" vertex="1" parent="1">
          <mxGeometry x="600" y="130" width="155" height="30" as="geometry" />
        </mxCell>
        <mxCell id="xELS0xbFVjjMzlSleZyl-14" value="" style="rounded=1;whiteSpace=wrap;html=1;fillColor=none;strokeColor=#d6b656;" vertex="1" parent="1">
          <mxGeometry x="840" y="170" width="155" height="450" as="geometry" />
        </mxCell>
        <mxCell id="xELS0xbFVjjMzlSleZyl-15" value="&lt;font style=&quot;font-size: 20px;&quot;&gt;Gold Layer&lt;/font&gt;" style="rounded=1;whiteSpace=wrap;html=1;fillColor=#fff2cc;strokeColor=#d6b656;" vertex="1" parent="1">
          <mxGeometry x="840" y="130" width="155" height="30" as="geometry" />
        </mxCell>
        <mxCell id="xELS0xbFVjjMzlSleZyl-16" value="CRM" style="image;aspect=fixed;html=1;points=[];align=center;fontSize=12;image=img/lib/azure2/general/Folder_Blank.svg;" vertex="1" parent="1">
          <mxGeometry x="126" y="240" width="69" height="56.00000000000001" as="geometry" />
        </mxCell>
        <mxCell id="xELS0xbFVjjMzlSleZyl-17" value="" style="image;aspect=fixed;html=1;points=[];align=center;fontSize=12;image=img/lib/azure2/general/Media_File.svg;" vertex="1" parent="1">
          <mxGeometry x="170.62" y="266" width="24.38" height="30" as="geometry" />
        </mxCell>
        <mxCell id="xELS0xbFVjjMzlSleZyl-18" value="ERP" style="image;aspect=fixed;html=1;points=[];align=center;fontSize=12;image=img/lib/azure2/general/Folder_Blank.svg;" vertex="1" parent="1">
          <mxGeometry x="126" y="380" width="69" height="56.00000000000001" as="geometry" />
        </mxCell>
        <mxCell id="xELS0xbFVjjMzlSleZyl-19" value="" style="image;aspect=fixed;html=1;points=[];align=center;fontSize=12;image=img/lib/azure2/general/Media_File.svg;" vertex="1" parent="1">
          <mxGeometry x="170.62" y="406" width="24.38" height="30" as="geometry" />
        </mxCell>
        <mxCell id="xELS0xbFVjjMzlSleZyl-22" value="" style="line;strokeWidth=1;rotatable=0;dashed=0;labelPosition=right;align=left;verticalAlign=middle;spacingTop=0;spacingLeft=6;points=[];portConstraint=eastwest;" vertex="1" parent="1">
          <mxGeometry x="110" y="470" width="100" height="10" as="geometry" />
        </mxCell>
        <mxCell id="xELS0xbFVjjMzlSleZyl-23" value="&lt;b&gt;Object Type:&lt;/b&gt; CSV File&amp;nbsp;&lt;div&gt;&lt;b&gt;&lt;br&gt;&lt;/b&gt;&lt;/div&gt;&lt;div&gt;&lt;b&gt;Interface: &lt;/b&gt;Files in folder&lt;/div&gt;" style="text;html=1;align=center;verticalAlign=middle;whiteSpace=wrap;rounded=0;" vertex="1" parent="1">
          <mxGeometry x="85" y="510" width="150" height="30" as="geometry" />
        </mxCell>
        <mxCell id="xELS0xbFVjjMzlSleZyl-24" value="Raw Data" style="html=1;verticalLabelPosition=bottom;align=center;labelBackgroundColor=#ffffff;verticalAlign=top;strokeWidth=2;strokeColor=#d79b00;shadow=0;dashed=0;shape=mxgraph.ios7.icons.data;fillColor=#ffe6cc;" vertex="1" parent="1">
          <mxGeometry x="400" y="190" width="70" height="80" as="geometry" />
        </mxCell>
        <mxCell id="xELS0xbFVjjMzlSleZyl-25" value="Cleaned Data" style="html=1;verticalLabelPosition=bottom;align=center;labelBackgroundColor=#ffffff;verticalAlign=top;strokeWidth=2;strokeColor=#666666;shadow=0;dashed=0;shape=mxgraph.ios7.icons.data;fillColor=#f5f5f5;fontColor=#333333;" vertex="1" parent="1">
          <mxGeometry x="642.5" y="190" width="70" height="80" as="geometry" />
        </mxCell>
        <mxCell id="xELS0xbFVjjMzlSleZyl-26" value="Business Ready Data" style="html=1;verticalLabelPosition=bottom;align=center;labelBackgroundColor=#ffffff;verticalAlign=top;strokeWidth=2;strokeColor=#d6b656;shadow=0;dashed=0;shape=mxgraph.ios7.icons.data;fillColor=#fff2cc;" vertex="1" parent="1">
          <mxGeometry x="882.5" y="186" width="70" height="80" as="geometry" />
        </mxCell>
        <mxCell id="xELS0xbFVjjMzlSleZyl-27" value="" style="shape=singleArrow;whiteSpace=wrap;html=1;" vertex="1" parent="1">
          <mxGeometry x="500" y="230" width="90" height="30" as="geometry" />
        </mxCell>
        <mxCell id="xELS0xbFVjjMzlSleZyl-28" value="" style="shape=singleArrow;whiteSpace=wrap;html=1;" vertex="1" parent="1">
          <mxGeometry x="740" y="230" width="90" height="30" as="geometry" />
        </mxCell>
        <mxCell id="xELS0xbFVjjMzlSleZyl-29" value="" style="shape=singleArrow;whiteSpace=wrap;html=1;" vertex="1" parent="1">
          <mxGeometry x="970" y="230" width="90" height="30" as="geometry" />
        </mxCell>
        <mxCell id="xELS0xbFVjjMzlSleZyl-30" value="" style="shape=singleArrow;whiteSpace=wrap;html=1;" vertex="1" parent="1">
          <mxGeometry x="230" y="230" width="100" height="30" as="geometry" />
        </mxCell>
        <mxCell id="xELS0xbFVjjMzlSleZyl-31" value="" style="line;strokeWidth=1;rotatable=0;dashed=0;labelPosition=right;align=left;verticalAlign=middle;spacingTop=0;spacingLeft=6;points=[];portConstraint=eastwest;" vertex="1" parent="1">
          <mxGeometry x="115" y="470" width="100" height="10" as="geometry" />
        </mxCell>
        <mxCell id="xELS0xbFVjjMzlSleZyl-32" value="" style="line;strokeWidth=1;rotatable=0;dashed=0;labelPosition=right;align=left;verticalAlign=middle;spacingTop=0;spacingLeft=6;points=[];portConstraint=eastwest;" vertex="1" parent="1">
          <mxGeometry x="385" y="320" width="100" height="10" as="geometry" />
        </mxCell>
        <mxCell id="xELS0xbFVjjMzlSleZyl-33" value="" style="line;strokeWidth=1;rotatable=0;dashed=0;labelPosition=right;align=left;verticalAlign=middle;spacingTop=0;spacingLeft=6;points=[];portConstraint=eastwest;" vertex="1" parent="1">
          <mxGeometry x="640" y="320" width="100" height="10" as="geometry" />
        </mxCell>
        <mxCell id="xELS0xbFVjjMzlSleZyl-34" value="" style="line;strokeWidth=1;rotatable=0;dashed=0;labelPosition=right;align=left;verticalAlign=middle;spacingTop=0;spacingLeft=6;points=[];portConstraint=eastwest;" vertex="1" parent="1">
          <mxGeometry x="882.5" y="320" width="100" height="10" as="geometry" />
        </mxCell>
        <mxCell id="xELS0xbFVjjMzlSleZyl-35" value="&lt;b&gt;&lt;u&gt;Object Type&lt;/u&gt;&lt;/b&gt;&lt;div&gt;&lt;span style=&quot;background-color: transparent; color: light-dark(rgb(0, 0, 0), rgb(255, 255, 255));&quot;&gt;Tables&lt;/span&gt;&lt;div&gt;&lt;div&gt;&lt;b&gt;&lt;br&gt;&lt;/b&gt;&lt;/div&gt;&lt;div&gt;&lt;b&gt;&lt;u&gt;Load&lt;/u&gt;&lt;/b&gt;&lt;/div&gt;&lt;div&gt;&lt;span style=&quot;background-color: transparent; color: light-dark(rgb(0, 0, 0), rgb(255, 255, 255));&quot;&gt;Batch Processing&lt;/span&gt;&lt;/div&gt;&lt;div&gt;Full Load&amp;nbsp;&lt;/div&gt;&lt;div&gt;Truncate and insert&lt;/div&gt;&lt;div&gt;&lt;br&gt;&lt;/div&gt;&lt;div&gt;&lt;b&gt;&lt;u&gt;Transformation&lt;/u&gt;&lt;/b&gt;&lt;/div&gt;&lt;div&gt;N/A&lt;/div&gt;&lt;div&gt;&lt;br&gt;&lt;/div&gt;&lt;div&gt;&lt;b&gt;&lt;u&gt;Data Models&lt;/u&gt;&lt;/b&gt;&lt;/div&gt;&lt;div&gt;None / As-Is&lt;/div&gt;&lt;div&gt;&lt;br&gt;&lt;/div&gt;&lt;/div&gt;&lt;/div&gt;" style="text;html=1;align=center;verticalAlign=middle;whiteSpace=wrap;rounded=0;" vertex="1" parent="1">
          <mxGeometry x="367.5" y="336" width="135" height="284" as="geometry" />
        </mxCell>
        <mxCell id="xELS0xbFVjjMzlSleZyl-36" value="&lt;b&gt;&lt;u&gt;Object Type&lt;/u&gt;&lt;/b&gt;&lt;div&gt;&lt;span style=&quot;background-color: transparent; color: light-dark(rgb(0, 0, 0), rgb(255, 255, 255));&quot;&gt;Views&lt;/span&gt;&lt;div&gt;&lt;div&gt;&lt;b&gt;&lt;br&gt;&lt;/b&gt;&lt;/div&gt;&lt;div&gt;&lt;b&gt;&lt;u&gt;Load&lt;/u&gt;&lt;/b&gt;&lt;/div&gt;&lt;div&gt;N/A&lt;/div&gt;&lt;div&gt;&lt;br&gt;&lt;/div&gt;&lt;div&gt;&lt;b&gt;&lt;u&gt;Transformation&lt;/u&gt;&lt;/b&gt;&lt;/div&gt;&lt;div&gt;Data Integrations&lt;/div&gt;&lt;div&gt;Aggregations&lt;/div&gt;&lt;div&gt;Business Logic&lt;/div&gt;&lt;div&gt;&lt;br&gt;&lt;/div&gt;&lt;div&gt;&lt;b&gt;&lt;u&gt;Data Models&lt;/u&gt;&lt;/b&gt;&lt;/div&gt;&lt;div&gt;Start schema&lt;/div&gt;&lt;div&gt;Flat table&amp;nbsp;&lt;/div&gt;&lt;div&gt;Aggregated Tables&lt;/div&gt;&lt;div&gt;&lt;br&gt;&lt;/div&gt;&lt;/div&gt;&lt;/div&gt;" style="text;html=1;align=center;verticalAlign=middle;whiteSpace=wrap;rounded=0;" vertex="1" parent="1">
          <mxGeometry x="860" y="338" width="135" height="244" as="geometry" />
        </mxCell>
        <mxCell id="xELS0xbFVjjMzlSleZyl-37" value="&lt;b&gt;&lt;u&gt;Object Type&lt;/u&gt;&lt;/b&gt;&lt;div&gt;&lt;span style=&quot;background-color: transparent; color: light-dark(rgb(0, 0, 0), rgb(255, 255, 255));&quot;&gt;Tables&lt;/span&gt;&lt;div&gt;&lt;div&gt;&lt;b&gt;&lt;br&gt;&lt;/b&gt;&lt;/div&gt;&lt;div&gt;&lt;b&gt;&lt;u&gt;Load&lt;/u&gt;&lt;/b&gt;&lt;/div&gt;&lt;div&gt;&lt;span style=&quot;background-color: transparent; color: light-dark(rgb(0, 0, 0), rgb(255, 255, 255));&quot;&gt;Batch Processing&lt;/span&gt;&lt;/div&gt;&lt;div&gt;Full Load&amp;nbsp;&lt;/div&gt;&lt;div&gt;Truncate and insert&lt;/div&gt;&lt;div&gt;&lt;br&gt;&lt;/div&gt;&lt;div&gt;&lt;b&gt;&lt;u&gt;Transformation&lt;/u&gt;&lt;/b&gt;&lt;/div&gt;&lt;div&gt;Data cleaning&amp;nbsp;&lt;/div&gt;&lt;div&gt;Data standardization&lt;/div&gt;&lt;div&gt;Data normalization&amp;nbsp;&lt;/div&gt;&lt;div&gt;Derived Columns&amp;nbsp;&lt;/div&gt;&lt;div&gt;Data Enrichments&lt;/div&gt;&lt;div&gt;&lt;br&gt;&lt;/div&gt;&lt;div&gt;&lt;b&gt;&lt;u&gt;Data Models&lt;/u&gt;&lt;/b&gt;&lt;/div&gt;&lt;div&gt;None / As-Is&lt;/div&gt;&lt;div&gt;&lt;br&gt;&lt;/div&gt;&lt;/div&gt;&lt;/div&gt;" style="text;html=1;align=center;verticalAlign=middle;whiteSpace=wrap;rounded=0;" vertex="1" parent="1">
          <mxGeometry x="610" y="320" width="135" height="284" as="geometry" />
        </mxCell>
        <mxCell id="xELS0xbFVjjMzlSleZyl-38" value="" style="image;aspect=fixed;html=1;points=[];align=center;fontSize=12;image=img/lib/azure2/power_platform/PowerBI.svg;" vertex="1" parent="1">
          <mxGeometry x="1099" y="193" width="30" height="40" as="geometry" />
        </mxCell>
        <mxCell id="xELS0xbFVjjMzlSleZyl-40" value="" style="shape=image;aspect=fixed;image=data:image/png,iVBORw0KGgoAAAANSUhEUgAAAfQAAAEZCAYAAABhDNfWAAAfDElEQVR42u3dB5wU9d3H8bk7qoJipahURUWDgjWoFEHhEBtVjSgqHIoag6jJk6BSlaJy4oG0O4pA1MRorDG2lCcRS4pJnlcUe4vSRENvd8/vv/fbu73dndmZuS2zu5/36/V9HRx3y83e7Hx3Zv7zH8sCAAAAAAAAAAAAAAAAAAAAAAAAAAAAAAAAAAAAAAAAAAAAAAAAAAAAAAAAAAAAAAAAAAAAAAAAAAAAAAAAAAAAAAAAAAAAAAAAAAAAAAAAAAAAAAAAAAAAAAAAAAAAAAAAAAAAAAAAAAAAAAAAAAAAAAAAAAAAAAAAAAAAAAAAAAAAAAAAAAAAAAAAAAAAAAAAAAAAAAAAAAAAAAAAAAAAAAAAAAAAAAAAAAAAAAAAAAAAAAAAAAAAAAAAAAAAAAAAAAAAAAAAAAAAAAAAAAAAAAAAAAAAAAAAAAAAAAAAAAAAAAAAAAAAAAAAAAAAAAAAAAAAAAAAAAAAkIMGPLjCNgAAILsKvUDSRNJUU0ShAwCQfYV+lOQJye8kr0r6UegAAGRfoR8r2SCp0lxJoQMAkH2F3lnylZZ5peQKCh0AAAodAABQ6AAAgEIHAIBCp9ABAKDQAQCAZe0Y09HadsUx1vZRR9fJ1svlc9d08lPWbtIpqtAvc/u9yfh5Bs5eZl1xeak15OaHWQEAALlh29VHW1sGH1skBd4kMlsuPbbIFL2PAi2UdJGcJekRJ2dKRkg2RRT6JMnpNl8f/p4DvBb6RQ+vsgbNX1kkH5vUZMGqJhfPWdFw+MDZ1rDr57ECAAByQ+WsI6x9M44Ysm/WEa9KXta8Ip8bKB/9FHpjyTOSHZItNtmmRR6eWGanw9dulazXYvf08/SZtdTqO3tZ/z4zl74ckdf6zl46eciDjxSZPXUAAHJC1dzWJhMkVVEpMf/ms9BfiSjrZMQUfk+vhX7O9HKr94yKa3reU15Vk3srqqTUnx5S8fMGnLcHAORaoY+PU+hjfBZ6I8kyyYeStXHynuRTyd6Iwv5KP7/WJu9ITvVT6L1mVIyqLfSKKvm7KfSnBi9ZTaEDACh0h0I3d1I7WNJa0ipODh9QuuJsPYwePoc+TnKozdebtNQ3Cp5+Hilxs4c+yhR5dWr20J8atvRRCh0AQKE7FLqbHBM1yv3yVIxyr1vo5VXhYjeFPqScQ+4AAArdt3Reh67n0EfVlnn1oXdT6EMr2EMHAFDoWVHove6tMCPdR8nHKhMp+FA45A4AoNCzqdBnVFjnSqHXOYeue+gccgcAUOhZuIceedjdFPqlixnlDgCg0LOn0GdWF7o51G7KvNe94cvW2EMHAu3cye4CIPcLPXaUe+0hdwodyIpCbyw5IE6aSxpQ6EDmC/1YyYaIiWWuTNUeeu+ZS0eF98wjC334MgbFAVlQ6GMlb0veiMoayQAKHblczH5jW+h+Y1vopStM2hTPWV4uebL4geVPFN+//Bz56Lh85kYqQ8fNt4bdMM91eus59Og99N4zK54asuzRogunlHt6vKE3zQ8FQNoKfbqkyiZXU+ig0CPzkOTBuIU+OhWFPmhaRSgX/3Rx0SU/WVR0yR2LiqSoCwb/aIHj8t1Z8rB1/wVzCqYMnVsw/bKHCqaPSJy2S1ZYfWZUXBO5dx7eQx81c3nDBy8sdfU4of/v4tKCTVZHq4pVDUhnoU+l0JHPhT5CslAy32XmVZW2XhOn0F+TlHl4HPN/jkpU6ANnLQvFlLrZQ75wcrkpd+uiu5Y4Ll+vyUusvvdWDOkzvXx1n2nlK11mRe/p5W9E7qHrNemfyb+t8vA4q8+9p2JqcemKpsVzlrOyAZkv9EoKHflQ6PPjlHO6slpSkIpz7z2k0HvNqJgWffg8cepegx69t54o1aPjK8xh+r8Xz13RgvPuAIUOpKvQyzJY6CtTVehnTVliRqxPqVvIFVXR07qGCzx8mZq5GUtP/Z7wjHExxR3nMeteuy6FPqPi7QFzVxxIoSNghZe7l3VR6KDQc3MPXQt9anQZxxZ8hYu98NppYKOLO7LQa98AhAr9r8UUOoJXeD0lEyU/jcrPJN0pdCC7C/1ayROSx13msarS1v+MU85vh/7N/eOY//PmROfQfRf61CVmkphbpGA/lMJdK2W81nyUsl0re9ihv4c/J18Tivz5PcnX0YfP5d+2hB9Dv25t5N8jP6ef/6D3zKW/kkJvnjOF7nbvjg1m0H+HUxwGjd1AoQPZXehmD7nQdea3MqPcb4tT6CX6eIUeUpCqQj9z0mJzXXmzc2ctbX32tCWtekxZ0ursqUtaSdm2ks+H/vz9SYtbSfG3kq8JfV6+5tBeMypuid47l73tF+TNwZHma0PfO6281TkS87jyNa3k31vJ94Ue46wpof+jdd/7lh2q93rPpTIolAyUjJNcHxFTBCN1Ag9eXMH+HU52KPTrKXQguws9Wdehp+SyNb/OuHtRaKIYKWtLytuSsg7ttZtbpJrPmz+b0g/tycvXmM/r7VOvjj48L597cvRTTxbqv1tS5JYUevVH83jyOfN582dzqN98lEL3dU/2gG8sG0qet9lgfinpyAaTQqfQgex6I5CWmeKqftwuYZKpdurX8pjr0IdW5PnUr7WF/pzNBvMLCp1Cp9ABCj3Qhd6b+6FT6BQ6hQ5Q6PUu9B6SxVGpkFyUskKfHjkojpuzUOgUOoUOUOjJKPRrJFVxMjV1e+ix90MfUk6hU+gUOoUOUOj1KfSrbQp9cmoLvaLOzVk4h06hU+gUOkChZ12h150FzhR63t8+lUKn0Cl0gELPnkKviD3kPr36kPuI5Y9R6BQ6hU6hAxR6dhV63ele5XMJR7kPH1PmGAodFDqFDiRd+B7jg6TALrhnqXXBvUtr/pzfhV59yD36pizmkHuiQXHDR5dZl42cWyDl3SAqFDoodAodSGmhN5USP05KvIsU+vHy52YUet1R7uEbrfRxcR368JIya+i4+f2kvJ+OyKOSzhR6XhVmcOe7p9Ap9Fx6HaFa8ZzlJt0lH0k2SL6Q9Dafd1not+bHoDi9Dn1W4pniho+VQr9x/lgp9iop8HB2Ss6i0HO8nP0kyIWeLcuT7YWezc91rr+GUvFzpGrZdI7xMyRbJFWS3ZLz3Qz60kI387Z/LvlU85nk8mwv9N7Ty61z7624otf08m97Tiv/1nyUbD13RsXKYcseLXJR6CVRhb5V0oNCz+oN0H6So/W2oxdLRktKJEMkvSWdJftHfH0rySzJAsnDEVkouU5SEOBCHxuxHI0lR0pOkfSXXCoZIxkuOU9yguTAQBVOthR67HNmbnp0qKSr5HzJBZoBklMl7SXNsqbcY3/OAl2+E/R1ZJbtcsk1kgslPSRHSIoivqdvnNeQyXxdJ9OxDIW6zYuXIp+Fbp6LBkl7zIhCP13yXy30nR4L/QBJu6g0y/ZCP/9ni6ziiYsPOe/Oxaf0uXORZPEpfScuOrX/XYs7jHnxaWtAKYWes4Ueu4E19wa/W/KKLts2yZ6I5d0r2S75j+RVyf9IjpecLNls8xz9Qh87qIVeKumnt1h9QfKB5FvJrohl3yfZKVknWSOZITlT0iggRyCCW+ixRddScplkmeQfko363O7W7NLn/1PJH3XZTo0qviC/jppreS/S5Vuvr6Pduh5V6Xq1RfKeZLXkB5KDJXc4rKeXpanQzRvZZyXPRMXcoGq8z0I/VvJ4nMd9Xrc3DTJR6Gm5a1omCn3AnYut8+5abPWWj33kY1/52P/uJdY1zz5FoedqodfdCJ2oewHrHDYoVQ7PgXlhbrX590cDXujb9E2K1+XerMvWI6N7kEEu9LrPy4F6lOevUW8S3WSDpFzSLVClXnf5zHbiEslvJTs8Lp95o/yWvlmM9+/mjcCINBV6icPPudJnoZ/p8Br7jT536Sv0dEp3odcHhZ6lhV73sKA5DPihj0Jzm6AXen1j3gTdFXMoPt8LvW7Znaxv+vbW87n+XDKuzpGRYJS5ObQ+V98cpmIdS2ehj3H4OZb7LPQzJP+1ecznKHQKnUJPTpmbAWHfpbDs8qHQwzF7kC0o9JiyM2Mu3k3i87xLT3k0DcCpDkvP9T+T4nWLQs9koYdK+a6jrD1jO1q7ru1k7bquU+3H6+L8PeLPlbeHCv0qm0KfZP7d7WNF/n3vjR2sfT/skB+FntyRpQV67sduj6Fdlo5iHePwIqPQ/WVB2osmaIVedx3rpWMSkv0879Vzr4UZPM0R3jN/Kg3rVX4V+uAJC6xLJyy0Bt63LFzcdolb6G7iudDvbGvtuaFjo91jOjWRNHab7/of30BKe0zcQr+j3fRtwzo38PJ44ey9qUOhl0JPNAtcKCWhQh9jV+huksIVs4mOGr2oHrlQRzq/ZbMybtQXwKB6/j+DdLBQujZEvTycL6/UvfgvdDDcZt1LytVC36HnbD/WgVnfeDhUbM4N35LWQ+/BLfRjdFCY28L6Tl9Pm1yegzYD5wZm6IhI+Mjdgx7Wq926fOH1anPEIDkK3WehnxZV6P1SVug/btdCCniJ5GXJb91GytzkXZtC/0jyopfHk7xUeVv75/Zc3/HkvTd29FroZta3ZpLmcTO6rMnQcfNvjijz6kIvKTOTzTS1/b4xZftLClNc6EfoKNJ9uqGtTyoTbMTrGzNgpDilL9jaDdHBOoo90UbEbFh/pZedna6XsXXWkfDmZ50oeV03VNle6N/piOq7dZSvGSTYVg+ndtPL1hbqERk353lPystCr1t25S6eK7ORf0IyUnKa5Ht6GZu56uA2yR8SlJ75nR2SgSMill7O6eac+VrJHH3j3lXXq3Z6GdoVOtDsPxR6bKE3lUK/Xcq3TDI3Tkolj0l2aaHvlTyln59rkwcknX0WekvJ+zaHztMaeYOwZ8/Yjv32jvNc6GdI/ihZI3k9Tv4s+Siq0PdJ/mXz9SZv6IxyR6Sh0D9M06HW+mZ3zd5G6jdE17nYM3hNck7NC80+B2lhvOnwpifohf6cjsJt7uLUSxfJChejtMvSdu19MAt9gF6W5fQcvaHrfCOH5/xgXbadDst3Y5rfPFl6ffyLCZbPXPUx28UpuSJ9IzPT4ahZXhZ6Cyn0d7Ssk5W94b14n4X+74AU+g4p9L4+Cn2AZG9UYScjX0k6UehpKvTajUcL3atx+lnMOcE2juf2YzdKp+uh6Wws9Kkel9WcI5+U4MjEV2nbSw9eoZuC/qWLdayt7fMeeznYvAR76QekudAHJTgtsEUv/yr0sF5ZehSIQo8o9L8nudD35Hmh95fsSkGhfyHpSKGnvdCLE2yI3orZo3D3uCfoeedsLPTprn622Jn0Hk/wO/1JXhV67XNzip4rtnte3owp88SP2V4PXdsdtj8nzYNKFyT43d/racBe7ePOpdBrC72ZFPoiKd8/SH4XJ69J/qJ73aas90neKX5g+avFc5Y/KX9eJVldfP/yFQNKV9wnf54pn58qf+8g8Vvo7wah0Ktub7fTZ6Gbc+GbJdsl22wSr/B3OHy9+bf3JR3SUOgfZUmh70lToZcmGAw21POArtqJaXK70GOfy1MTDCx8QQdm5luhT0xwzvwCn1eaPOLwuHensdAPSzDY7506R7i8PXcUekShF0ihN5YibmqTRpKeEYPizLn0CwffuqChpEH/+Y8USLkXTLR+WHDewlWhGdL6z3vEOn/hSsv83YvK8e1NDquc0H6NZLNkk4dsrLyt/VabQXHbPT5Wdca3/3LP6E7nmMvoPBb6QZKzJT1t0mPY9fNmR5W5Kf9xeoMWu+8z5+abpLjQW0v+oqNJN9Uzux1eaMl4/K91rvBUPh/76yAjuxfrGl/XUedvoRfp+XS7x/0sLXMUBKvQG+sbmSqHWcEO0cPyjT2kSCfvcTqE3yBNz/XZCcYH/LQeNzCh0CMK3ddla+Zua5f8eJHVv+yRUIlfesdCc4/vel1StWNoZ2vH8M4Ndo085thdVx3d1Ut2/uCYLlLAE+MeOr+t/cM7rzzmBK+PuWvk0SfuGNZ5vx0jOnstdDeXrV0XddnaFi3sTF+2ZlaS43RkaX3S3aEI1+me9Yn1/D++VzMoK7VvcNY6vFjv8bWXky+H3ONvgEc4XNJmrlzok2eFbo6Kve/wXK/Xc94v6hSpbmPeCPyfw+O+XfNmNPXLeI3Dz/FNzU1UKHT/he5GOieWkfI0hW5JkVpSqJ6y7+YO5nD9SJvD53fvvamD58c0P0foZ/JQ6K5KPz8mlil0mFjmCz2/F+yJZaofu4PDZVfmkP/gehT6GQ4zzgWh0CelqNCP06MrdmU6Ms8K/RSHm/SkMp/UjP1I/TJOTHC4/ZB6rE+5WuhnMvUrU79mXq5M/Vq9HN0cRqJv0Red38fu6zDYLgiFfmdSC732cQ9JcD711jwr9IEeJx1KVjboUbJMvzl8yde4idwv9LMcbt5EoVPoFLqP5ThVZ9eyu8zq2Bwu9AkpKvTmDnfIqtL/N58K/SIfd1JLRrbque1MF/pqX/MPBKvQr05BoRc7vNFLf6GvO7J7wmRtodfjMDCFnjOFvt73Hk52FPpYCj0tz/OFDoVeqcWUimxP6aDS/Cp0pzdlfgv9UoexJhkr9BaSY6LSMkcK/QCdezkyrROtnBR6zhR6rh9yvy5FhX5ogkPu17GHXue1Yp6PIXp5ZLIyTD8eFYBC/62Oyvdb6EsCUOjFDlf1+C30S9JR6Ls8FnqJ5GvJfzTrJaU5UugjdD7hcMweW4VeLkKh50ahd3WY8GO37l35HRSXX4Ved0KddQ4DDS/Js0Lvo3vLdkeBuiR5wGom7lY43mFd+qtOh+zncYv03glBKPRdwS/00hUmptA3Syol2yXneSj0WyVVUVmWI4Ue71KMXye6ttOm0LdR6IFcjjYJLlubRKF7LvShDnuk5qhHjzwr9M4ONxoxpXRlRu9hnpxl/IHDfQvW6yWofkrPFPqTeVjoz/gqdHONuuRgKfWLpMSHSC6VtPRQ6OPjFPrSHCn0UX4maxg2dp4p9JFS6BukwNdLzMdPJKdR6IFbjkSTfvyhzg1KvD32YIdiy+VCf5iJZer8HGb9+d8Eg6qKsrbU3U0sc2MOFLrdIfefe34tJz6HvszXuIPiB5aHEtpT93hrVArdodBvmn+QFHoXKfBwjpPsR6EHbjkSTbCyQ89v+pn69aqA3z41eYVe+/x00dK2e9zn83Tq1zkOz8k6HcuRzYXeKsEkN3/WsRVeX0NOhb5bbwiT6UJ/xdM6XbtOlDg8XwvTvj5Q6I6FHpoxLm2zwFHo9dnYnutwPWj45iztPZV6vhR67B3Xlia4lOqHeXpzloEJbgD0C52G2P9zk+5z57H/70MOy2ee81k12073NzlyOoe+reYGNKlfvrMcjkC852me+trln+3wfC2g0ANS6DkvVwq97iHRlxIU0a/j3sPZ+QU7KusL3W45Y8tjf72bltP11uamQJ3ytNAPTHCLXnPodVrMfdD9lHj1nvBBGSj03g4zn4Wn/Z0Q917v9o/rdEosnYV+vMPsh7trDv27v1PewXqHPbvn6i4KnUKn0P1vjIYk2IMyeUMPvTVyObr4DofHWpLRQ6yJC31OzN5U/BTpvP4rHc4HhjMtbcscvPuhh7cnTm94dul64WfUexOdM2GCFsVVGVi+Ji7u+b5Tl7FrzH3R42c/hzkN0lno++nld3bL9fs6pxQS3+f9Fod1wbzxOZ9Cp9Ap9PptjH7uYvYtMzf7EzrIZ4DkNMlJETHzt1+sl/E4vQOfHfBCX69z9ZsSHq6DnsLLeLYu+2i9fefXLp43c4e/I/O80Js5HD6OzKeSByX99XXUUo8iNde5MVrrKaDu+kZ0qt7YJfL3MDGt61btMp6hr/9Ey/il3pVvlF71EPkaOlkv9btCMtPhBkfpLPTwREyVDuvUKr03hNMblKZ67nxTgjcHB6R925CBQh9lU+hTKHQKPQkvWHNY7Z8eptbcpQW/SeeD36R/dzPNZ9ALPXo08daI29pu9Tg3+Ubf1/PnQqHXXcfMVMJ/c/m87dAbB/1bjw6t0TeJ72npb3Y4KjI5Q8sXLr6dLpexUs9NR76GvtG91H0JvjfdhX5YgtMmJv/SS1376TbwcH0j203ng382wZHA7TopkJUPhT5QsiYqb0rGUOgUepI2Rr0kH6Rhnu37Mvr8VC/r6DQs56Y611lT6JaW0Icpft4np339ql2+hnqEINU3pPlGizKdy9Zb7/GQ6GfbHvFm7EP9WStdfF9pzfXneVDoDSXN46QRhU6hJ3GD21NHtqdyY3RPAAr9SpcbGb/5VA+bWmnfQAWt0OOX+l9yqtBjS318gkPL9c3XOmlPun93V7o8zeQlZp0sr7l/fSZ+dxkodMdQ6BR6El+0R+pedKo2SOMDUOgDXAxk85MdOs7glIyUeVALPXYd66iDCXen4HdwV4ZP54Rzvh6mTsUbxw2+74ZY/+Uye+p/StJyrNdbGR+QlNeKKd4t5x1vbTz+JGvTie6zvkM3870/ilPoFZtO8PZY5uu/bpPcNwE2vwgviXfLvCddjs7M3HWhFHqy1pVCvf50kR4+S0bRfaCD704LQKG31EOjv9eNY303upv1HOEwHfyTufU+qIUeu47tpz/Ln1xcZeEmn+k1zMcHYP2KvIzuBi32rUlYxs06pmBaWi/Pi12uwyMGv+70sRxmO7lYBxIWJO31Eir0vl2sjceddJAUa1vX6dq1zbq23afEFHrb7o9LSbf18lgbu5x02Lo23QtSWOjmOtC2HtLG5n7RL+pIRi+P1Sqj1xynrtB/43AorFNWL29ssR+nI9sf14FzX+pd2r7VwTl7IrJDP/+5bnhW6rp0nt79KvPTfNZdvmZ6GZG51GmeTnf7kQ5m+y5iOSPznc5w9r6+JibpnemaBuJNbJALPf5ORgu9JNLcKvRtfYO128VgRfN7eFfXyxI9BF0YiB2I2GU8UPds79adgY+0nKNfP3t02f+r69i7esmYGfl/rc6qd2CGj/5E5hCdsW6mXjP/Lz3d9Jnufa/XbYE5l/66TutaotuUwqQvhynRDZ26Wevbdp+8vl23zyWfuMzH647q/k1MoR/VfYuHx/hE/88l8r0NUljot+qT+onLfGxzucQ2D4/xif5Sn6mZDzx3Cr1IS2qVXn4Szkp94R2e9ctrf931YXor3VN049JLX9CDdDR3P/23jnoYrTCQR2zsjyTtr288vqfLZ5cu+sa3SUCXLbiF7vw7aKHP/SC9XnmmzsD3iGaeHlm5QvfuWtvOGRDc11Fj3dnprmNWBkVloL5B7KI7RE0Cd+TTfrkO00mo2uudB0/UncAjtQcKUroM4fPdknlxDp+nK09LGqaw0KemYUSv0+0DD8yxQg+nIE5y6xRD/U7bZMcpl1xbvmwpdG/Pf4FtGWTLay5XX0dBWo6IQi/LYKH/OsWFPiWDhf52Dhd67o8ZQLauo9lT6H5ea0CCQp+fwUJ/lj10ABQ6kJxCv1byS8ljLvOo5G9xyvljD4/xmP6ft0uK7Ao93l3LXN/FrPrF/X0dkXiLy9ys54ejNwb/8Pg45msv13MrrGxA+gp9msObbAodOV/oZpR5oYeY77k1TqEv8/g4hfp/Wy4KvaXkBL3HuPl4tKSBi0L3k5FxNgS/yslzqEDuFfrPdKT05qiYWbsu4/WIXC90P3GcWMZPEhT6VMkmyTrJBslbkjZJv884E8sA2V7orXUUdbc4OYjXMBD7RiAtM8VFFPqDkqqIfCw5ikIHEPX65YgZEPBCL40q9I8kR1LoAABQ6BQ6AIBCp9ABAKDQKXQAACh0Ch0AAAqdQgcAUOjJK3Q3M8FpHohT6K3dfj+FDgBA6gvdTBDT0yFnDy8p+0VUoX8lnxsa+jf77+uecDY5Ch0AQKEnrdDHSbZLtjpkT1ShVyb4np2S1yTNKHQAAOwLfUKcQl+xvl03P4V+S1RZJyuv+yz0a+MU+tMUOgAgFwv9EsnzevtTkxekzH801ZplbexyktdCH5+iQn9T0txHofeTPBuRFyQTJUUUOgAg1wq9UO9jXpNvunUtsqwqq+qBNl4LfbDkVcnLNnlpeEnZZ1FlbQ63/zH0b/G/xzzeXElTH4VeKGkYlSLmgQYA5GKhx2TTCWbPvMraN76910IvkjSxTUlZQ/n4UMzNWUrKOsnHRg7f28jnKHdu7AAAgBceLluzvQ49qZetAQCAlBZ+eiaWAQAAFDoAAKDQAQCg0AEAAIUOAAAodAAA4KbQo69DNxPNHEWhAwCQXYU+UvKoZJVktc4CdwiFDgBAdhV6QVQKmTQGAIDsK3RmgQMAAAAAAAAAAAAAAAAAAAAAAAAAAAAAAAAAAAAAAAAAAAAAAAAAAAAAAAAAAAAAAAAAAAAAAAAAAAAAAAAAAAAAAAAAAAAAAAAAAAAAAAAAAAAAAAAAAAAAAAAAAAAAAAAAAAAAAAAAAAAAAAAAAAAAAAAAAAAAAAAAAAAAAAAAAAAAAAAAAAAAAAAAAAAAAAAAAAAAAAAAAAAAAAAAAAAAAAAAAAAAAAAAAAAAAAAAAAAAAAAAAAAAAAAAAAAAAAAAAAAAAAAAAAAAAAAAAAAAAAAAAAAAAAAAAAAAAAAAAAAAAAAAAAAAAAAAAAAAAAAAAAAAAAAAAAAAAMgb/w9ltVRlEP13wwAAAABJRU5ErkJggg==;clipPath=inset(19.82% 74.33% 21.01% 0.33% round 5%);" vertex="1" parent="1">
          <mxGeometry x="1129" y="176" width="68.4" height="90" as="geometry" />
        </mxCell>
        <mxCell id="xELS0xbFVjjMzlSleZyl-41" value="BI and Reporting" style="text;html=1;align=center;verticalAlign=middle;whiteSpace=wrap;rounded=0;" vertex="1" parent="1">
          <mxGeometry x="1089" y="258" width="105" height="30" as="geometry" />
        </mxCell>
        <mxCell id="xELS0xbFVjjMzlSleZyl-42" value="Ad-hoc Query" style="html=1;verticalLabelPosition=bottom;align=center;labelBackgroundColor=#ffffff;verticalAlign=top;strokeWidth=2;strokeColor=#0080F0;shadow=0;dashed=0;shape=mxgraph.ios7.icons.looking_glass;" vertex="1" parent="1">
          <mxGeometry x="1124" y="309" width="30" height="30" as="geometry" />
        </mxCell>
        <mxCell id="xELS0xbFVjjMzlSleZyl-43" value="Machine Learning" style="sketch=0;points=[[0,0,0],[0.25,0,0],[0.5,0,0],[0.75,0,0],[1,0,0],[0,1,0],[0.25,1,0],[0.5,1,0],[0.75,1,0],[1,1,0],[0,0.25,0],[0,0.5,0],[0,0.75,0],[1,0.25,0],[1,0.5,0],[1,0.75,0]];outlineConnect=0;fontColor=#232F3E;fillColor=#01A88D;strokeColor=#ffffff;dashed=0;verticalLabelPosition=bottom;verticalAlign=top;align=center;html=1;fontSize=12;fontStyle=0;aspect=fixed;shape=mxgraph.aws4.resourceIcon;resIcon=mxgraph.aws4.machine_learning;" vertex="1" parent="1">
          <mxGeometry x="1107.5" y="400" width="68" height="68" as="geometry" />
        </mxCell>
        <mxCell id="xELS0xbFVjjMzlSleZyl-44" value="" style="image;aspect=fixed;html=1;points=[];align=center;fontSize=12;image=img/lib/azure2/databases/Azure_Database_PostgreSQL_Server.svg;" vertex="1" parent="1">
          <mxGeometry x="337" y="46" width="48" height="64" as="geometry" />
        </mxCell>
      </root>
    </mxGraphModel>
  </diagram>
</mxfile>
